<svg width="20" height="20" viewBox="0 0 20 20" fill="none" xmlns="http://www.w3.org/2000/svg">
<path d="M14.0366 3.76469L11.9696 0.992045C11.7377 0.683146 11.4407 0.433166 11.1015 0.261246C10.7622 0.0893267 10.3896 0 10.0121 0C9.63446 0 9.26187 0.0893267 8.92264 0.261246C8.58342 0.433166 8.28658 0.683146 8.05467 0.992045L5.98768 3.76469C5.69731 4.15534 5.30596 4.45255 4.85911 4.62177L1.68009 5.80883C1.31715 5.9371 0.987869 6.15088 0.718053 6.43333C0.448238 6.71578 0.245182 7.0592 0.125004 7.43668C0.00482622 7.81415 -0.0293405 8.21533 0.0252879 8.60878C0.0799163 9.00223 0.221903 9.37717 0.439897 9.70419L2.34157 12.6054C2.60302 13.0137 2.74645 13.4911 2.75497 13.9811L2.86236 17.4823C2.87032 17.8788 2.96678 18.268 3.14395 18.6195C3.32111 18.971 3.5743 19.2752 3.88374 19.5084C4.19318 19.7416 4.55034 19.8975 4.92753 19.9638C5.30473 20.0301 5.69162 20.005 6.05792 19.8906L9.30738 18.9136C9.76223 18.7756 10.2455 18.7756 10.7004 18.9136L13.9498 19.8906C14.3161 20.005 14.703 20.0301 15.0802 19.9638C15.4574 19.8975 15.8146 19.7416 16.124 19.5084C16.4335 19.2752 16.6866 18.971 16.8638 18.6195C17.041 18.268 17.1374 17.8788 17.1454 17.4823L17.2528 13.9811C17.264 13.4916 17.4072 13.015 17.6662 12.6054L19.5679 9.70419C19.7821 9.37733 19.9213 9.00406 19.975 8.61286C20.0287 8.22166 19.9956 7.82299 19.8779 7.44714C19.7602 7.07129 19.5613 6.72825 19.2962 6.44432C19.0311 6.16038 18.7068 5.94302 18.3483 5.80883L15.1652 4.62177C14.7184 4.45255 14.327 4.15534 14.0366 3.76469Z" fill="black"/>
</svg>
