<svg width="50" height="50" viewBox="0 0 50 50" fill="none" xmlns="http://www.w3.org/2000/svg">
<path d="M24.9998 8.33341C34.1894 8.33341 41.6665 15.8105 41.6665 25.0001C41.6665 34.1897 34.1894 41.6667 24.9998 41.6667C15.8103 41.6667 8.33317 34.1897 8.33317 25.0001C8.33317 15.8105 15.8103 8.33341 24.9998 8.33341ZM24.9998 4.16675C13.4936 4.16675 4.1665 13.4938 4.1665 25.0001C4.1665 36.5063 13.4936 45.8334 24.9998 45.8334C36.5061 45.8334 45.8332 36.5063 45.8332 25.0001C45.8332 13.4938 36.5061 4.16675 24.9998 4.16675ZM35.4165 22.9167H27.0832V14.5834H22.9165V22.9167H14.5832V27.0834H22.9165V35.4167H27.0832V27.0834H35.4165V22.9167Z" fill="black"/>
</svg>
