<svg width="22" height="22" viewBox="0 0 22 22" fill="none" xmlns="http://www.w3.org/2000/svg">
<path d="M19.5403 16.8078L21.1406 20.1173C21.1886 20.2346 21.2008 20.3635 21.1754 20.4878C21.1501 20.612 21.0884 20.726 20.9983 20.8151C20.9081 20.9043 20.7935 20.9646 20.6689 20.9885C20.5444 21.0124 20.4156 20.9988 20.2988 20.9494L16.9766 19.2691C15.2133 20.3121 13.1895 20.8316 11.1419 20.767C11.1419 20.767 3.56283 21.3303 1.43443 13.9689C0.85519 11.9549 0.85519 9.81849 1.43443 7.80452C3.56283 0.452729 11.1419 1.00964 11.1419 1.00964C11.1419 1.00964 18.6121 0.46233 20.8013 7.64449C21.4068 9.64587 21.4401 11.7768 20.8973 13.7961C20.6185 14.8695 20.1597 15.8878 19.5403 16.8078Z" fill="url(#paint0_linear_447_1993)"/>
<path d="M5.58562 9.31196H8.62619M5.58562 12.5062H16.6885M21.1406 20.1173L19.5403 16.8078C20.1597 15.8878 20.6185 14.8695 20.8973 13.7961C21.4401 11.7768 21.4068 9.64587 20.8013 7.64449C18.6121 0.46233 11.1419 1.00964 11.1419 1.00964C11.1419 1.00964 3.56283 0.452729 1.43443 7.80452C0.85519 9.81849 0.85519 11.9549 1.43443 13.9689C3.56283 21.3303 11.1419 20.767 11.1419 20.767C13.1895 20.8316 15.2133 20.3121 16.9766 19.2691L20.2988 20.9494C20.4156 20.9988 20.5444 21.0124 20.6689 20.9885C20.7935 20.9646 20.9081 20.9043 20.9983 20.8151C21.0884 20.726 21.1501 20.612 21.1754 20.4878C21.2008 20.3635 21.1886 20.2346 21.1406 20.1173Z" stroke="url(#paint1_linear_447_1993)" stroke-width="0.761311" stroke-linecap="round" stroke-linejoin="round"/>
<defs>
<linearGradient id="paint0_linear_447_1993" x1="12.4254" y1="1" x2="12.6999" y2="20.9965" gradientUnits="userSpaceOnUse">
<stop/>
<stop offset="0.875713"/>
</linearGradient>
<linearGradient id="paint1_linear_447_1993" x1="12.4254" y1="1" x2="12.6999" y2="20.9965" gradientUnits="userSpaceOnUse">
<stop stop-color="#1C0F0D" stop-opacity="0"/>
<stop offset="0.875713" stop-color="#1C0F0D"/>
</linearGradient>
</defs>
</svg>
