<svg width="60" height="31" viewBox="0 0 60 31" fill="none" xmlns="http://www.w3.org/2000/svg">
<path d="M1.24715 19.5451V17.8251L7.96715 8.18508H10.7271V17.5651H12.5871V19.5451H10.7271V22.5851H8.48715V19.5451H1.24715ZM8.58715 10.5051L3.86715 17.5651H8.58715V10.5051ZM15.6964 22.7251C15.283 22.7251 14.9364 22.5851 14.6564 22.3051C14.3764 22.0251 14.2364 21.6784 14.2364 21.2651C14.2364 20.8517 14.3764 20.5051 14.6564 20.2251C14.9364 19.9451 15.283 19.8051 15.6964 19.8051C16.0964 19.8051 16.4364 19.9451 16.7164 20.2251C16.9964 20.5051 17.1364 20.8517 17.1364 21.2651C17.1364 21.6784 16.9964 22.0251 16.7164 22.3051C16.4364 22.5851 16.0964 22.7251 15.6964 22.7251ZM20.5606 19.4851C21.8406 18.3784 22.8473 17.4717 23.5806 16.7651C24.3273 16.0451 24.9473 15.2984 25.4406 14.5251C25.9339 13.7517 26.1806 12.9784 26.1806 12.2051C26.1806 11.4051 25.9873 10.7784 25.6006 10.3251C25.2273 9.87175 24.6339 9.64508 23.8206 9.64508C23.0339 9.64508 22.4206 9.89842 21.9806 10.4051C21.5539 10.8984 21.3273 11.5651 21.3006 12.4051H19.1006C19.1406 10.8851 19.5939 9.72508 20.4606 8.92508C21.3406 8.11175 22.4539 7.70508 23.8006 7.70508C25.2539 7.70508 26.3873 8.10508 27.2006 8.90508C28.0273 9.70508 28.4406 10.7717 28.4406 12.1051C28.4406 13.0651 28.1939 13.9917 27.7006 14.8851C27.2206 15.7651 26.6406 16.5584 25.9606 17.2651C25.2939 17.9584 24.4406 18.7651 23.4006 19.6851L22.5006 20.4851H28.8406V22.3851H19.1206V20.7251L20.5606 19.4851Z" fill="#AA5609"/>
<path d="M52.1711 5.10271L49.6907 1.77554C49.4124 1.40486 49.056 1.10488 48.6489 0.898578C48.2418 0.692275 47.7947 0.585083 47.3416 0.585083C46.8885 0.585083 46.4414 0.692275 46.0343 0.898578C45.6273 1.10488 45.271 1.40486 44.9927 1.77554L42.5124 5.10271C42.1639 5.57149 41.6943 5.92814 41.1581 6.1312L37.3433 7.55568C36.9077 7.7096 36.5126 7.96614 36.1888 8.30508C35.865 8.64402 35.6214 9.05612 35.4772 9.50909C35.3329 9.96206 35.2919 10.4435 35.3575 10.9156C35.423 11.3878 35.5934 11.8377 35.855 12.2301L38.137 15.7116C38.4508 16.2016 38.6229 16.7744 38.6331 17.3624L38.762 21.5638C38.7715 22.0396 38.8873 22.5067 39.0999 22.9285C39.3125 23.3503 39.6163 23.7153 39.9876 23.9952C40.359 24.275 40.7876 24.4621 41.2402 24.5417C41.6928 24.6212 42.1571 24.5911 42.5967 24.4538L46.496 23.2814C47.0418 23.1159 47.6218 23.1159 48.1676 23.2814L52.067 24.4538C52.5065 24.5911 52.9708 24.6212 53.4234 24.5417C53.8761 24.4621 54.3046 24.275 54.676 23.9952C55.0473 23.7153 55.3511 23.3503 55.5637 22.9285C55.7763 22.5067 55.8921 22.0396 55.9016 21.5638L56.0305 17.3624C56.044 16.775 56.2158 16.203 56.5266 15.7116L58.8086 12.2301C59.0656 11.8379 59.2327 11.39 59.2972 10.9205C59.3616 10.4511 59.3218 9.97266 59.1806 9.52165C59.0394 9.07063 58.8007 8.65899 58.4825 8.31826C58.1644 7.97754 57.7753 7.71671 57.3451 7.55568L53.5254 6.1312C52.9892 5.92814 52.5196 5.57149 52.1711 5.10271Z" fill="#FF8A00" stroke="#FF8A00" stroke-width="0.819783" stroke-linecap="round" stroke-linejoin="round"/>
</svg>
