<svg width="25" height="24" viewBox="0 0 25 24" fill="none" xmlns="http://www.w3.org/2000/svg">
<path fill-rule="evenodd" clip-rule="evenodd" d="M6.70671 5.33333C6.70671 3.91885 7.26861 2.56229 8.2688 1.5621C9.269 0.561903 10.6256 0 12.04 0C13.4545 0 14.8111 0.561903 15.8113 1.5621C16.8115 2.56229 17.3734 3.91885 17.3734 5.33333C17.3734 6.74782 16.8115 8.10438 15.8113 9.10457C14.8111 10.1048 13.4545 10.6667 12.04 10.6667C10.6256 10.6667 9.269 10.1048 8.2688 9.10457C7.26861 8.10438 6.70671 6.74782 6.70671 5.33333ZM6.70671 13.3333C4.9386 13.3333 3.2429 14.0357 1.99266 15.286C0.742418 16.5362 0.0400391 18.2319 0.0400391 20C0.0400391 21.0609 0.461467 22.0783 1.21161 22.8284C1.96176 23.5786 2.97917 24 4.04004 24H20.04C21.1009 24 22.1183 23.5786 22.8685 22.8284C23.6186 22.0783 24.04 21.0609 24.04 20C24.04 18.2319 23.3377 16.5362 22.0874 15.286C20.8372 14.0357 19.1415 13.3333 17.3734 13.3333H6.70671Z" fill="black"/>
</svg>
