<svg width="44" height="44" viewBox="0 0 44 44" fill="none" xmlns="http://www.w3.org/2000/svg">
<path d="M1.67236 24.8922L17.5547 32.8635C20.2534 34.1978 23.2251 34.1978 25.9238 32.8635L41.8061 24.8922M1.67236 33.028L17.5547 40.9991C20.2534 42.3334 23.2251 42.3334 25.9238 40.9991L41.8061 33.028M38.4433 8.58444L25.3232 2.64265C22.9951 1.59165 20.4695 1.59165 18.1415 2.64265L5.02135 8.58444C4.22513 8.94783 3.53445 9.63098 3.04551 10.5388C2.55657 11.4466 2.29378 12.5338 2.29378 13.6487C2.29378 14.7636 2.55657 15.8506 3.04551 16.7584C3.53445 17.6662 4.22513 18.3496 5.02135 18.713L17.9758 24.5816C20.3927 25.6785 23.0167 25.6785 25.4336 24.5816L38.388 18.713C39.1863 18.3573 39.8807 17.6805 40.3747 16.7774C40.8686 15.8743 41.1373 14.7898 41.1434 13.6748C41.1495 12.5599 40.8928 11.47 40.4087 10.5575C39.9247 9.64505 39.2376 8.95537 38.4433 8.58444Z" stroke="#996D3E" stroke-width="2.05756" stroke-linecap="round" stroke-linejoin="round"/>
</svg>
