<svg width="40" height="40" viewBox="0 0 40 40" fill="none" xmlns="http://www.w3.org/2000/svg">
<path d="M18.2999 7.8V14.2667C18.2982 15.0733 18.0577 15.8613 17.6086 16.5314C17.1595 17.2015 16.522 17.7235 15.7766 18.0317C15.2817 18.2347 14.7515 18.3372 14.2166 18.3333H7.7666C6.69094 18.3289 5.66085 17.8985 4.9018 17.1364C4.14275 16.3742 3.71659 15.3423 3.7166 14.2667V7.81667C3.71659 6.741 4.14275 5.70915 4.9018 4.94698C5.66085 4.18481 6.69094 3.75441 7.7666 3.75H14.2166C15.2946 3.7566 16.3281 4.18075 17.0999 4.93333C17.8606 5.6944 18.2916 6.724 18.2999 7.8ZM36.2166 7.81667V14.2667C36.2145 15.3407 35.7894 16.3706 35.0333 17.1333C34.6609 17.5161 34.215 17.8197 33.7224 18.0259C33.2298 18.2321 32.7006 18.3367 32.1666 18.3333H25.7666C24.6886 18.3267 23.6551 17.9026 22.8833 17.15C22.5062 16.7708 22.2076 16.3209 22.0045 15.8261C21.8015 15.3314 21.698 14.8015 21.6999 14.2667V7.81667C21.6977 7.28282 21.8028 6.75398 22.009 6.26154C22.2151 5.76909 22.5181 5.32309 22.8999 4.95C23.2747 4.57035 23.721 4.2688 24.2131 4.06282C24.7051 3.85684 25.2332 3.75051 25.7666 3.75H32.2166C33.2925 3.75871 34.3218 4.18996 35.0825 4.95073C35.8433 5.7115 36.2746 6.74081 36.2833 7.81667H36.2166ZM18.2999 25.75V32.2C18.298 32.7341 18.1908 33.2626 17.9845 33.7552C17.7781 34.2479 17.4768 34.6951 17.0975 35.0712C16.7183 35.4473 16.2687 35.745 15.7744 35.9473C15.28 36.1495 14.7507 36.2524 14.2166 36.25H7.7666C6.69261 36.2479 5.66269 35.8228 4.89993 35.0667C4.52255 34.6911 4.22359 34.2443 4.02044 33.7521C3.81729 33.26 3.71401 32.7324 3.7166 32.2V25.75C3.71401 25.2176 3.81729 24.69 4.02044 24.1979C4.22359 23.7057 4.52255 23.2589 4.89993 22.8833C5.65829 22.1165 6.68822 21.6794 7.7666 21.6667H14.2166C15.2982 21.6711 16.3343 22.1027 17.0991 22.8675C17.8639 23.6323 18.2955 24.6684 18.2999 25.75ZM36.0999 28.9833C36.0956 29.3135 35.9625 29.629 35.729 29.8624C35.4956 30.0959 35.1801 30.229 34.8499 30.2333H30.1499V34.9C30.1499 35.2315 30.0182 35.5495 29.7838 35.7839C29.5494 36.0183 29.2315 36.15 28.8999 36.15C28.5684 36.15 28.2505 36.0183 28.016 35.7839C27.7816 35.5495 27.6499 35.2315 27.6499 34.9V30.2333H22.9833C22.6517 30.2333 22.3338 30.1016 22.0994 29.8672C21.865 29.6328 21.7333 29.3149 21.7333 28.9833C21.7333 28.6518 21.865 28.3339 22.0994 28.0995C22.3338 27.865 22.6517 27.7333 22.9833 27.7333H27.6499V23.0333C27.6499 22.7018 27.7816 22.3839 28.016 22.1495C28.2505 21.915 28.5684 21.7833 28.8999 21.7833C29.2315 21.7833 29.5494 21.915 29.7838 22.1495C30.0182 22.3839 30.1499 22.7018 30.1499 23.0333V27.7333H34.8499C35.1815 27.7333 35.4994 27.865 35.7338 28.0995C35.9682 28.3339 36.0999 28.6518 36.0999 28.9833Z" fill="white"/>
</svg>
