<svg width="19" height="19" viewBox="0 0 19 19" fill="none" xmlns="http://www.w3.org/2000/svg">
<path d="M16.6171 18.5L10.3171 12.2C9.81709 12.6 9.24209 12.9167 8.59209 13.15C7.94209 13.3833 7.25042 13.5 6.51709 13.5C4.70042 13.5 3.16309 12.8707 1.90509 11.612C0.64709 10.3533 0.017757 8.816 0.0170904 7C0.0164237 5.184 0.645757 3.64667 1.90509 2.388C3.16442 1.12933 4.70176 0.5 6.51709 0.5C8.33242 0.5 9.87009 1.12933 11.1301 2.388C12.3901 3.64667 13.0191 5.184 13.0171 7C13.0171 7.73333 12.9004 8.425 12.6671 9.075C12.4338 9.725 12.1171 10.3 11.7171 10.8L18.0171 17.1L16.6171 18.5ZM6.51709 11.5C7.76709 11.5 8.82976 11.0627 9.70509 10.188C10.5804 9.31333 11.0178 8.25067 11.0171 7C11.0164 5.74933 10.5791 4.687 9.70509 3.813C8.83109 2.939 7.76842 2.50133 6.51709 2.5C5.26576 2.49867 4.20342 2.93633 3.33009 3.813C2.45676 4.68967 2.01909 5.752 2.01709 7C2.01509 8.248 2.45276 9.31067 3.33009 10.188C4.20742 11.0653 5.26976 11.5027 6.51709 11.5Z" fill="black"/>
</svg>
