<svg width="25" height="25" viewBox="0 0 25 25" fill="none" xmlns="http://www.w3.org/2000/svg">
<path d="M19.6171 21.5L13.3171 15.2C12.8171 15.6 12.2421 15.9167 11.5921 16.15C10.9421 16.3833 10.2504 16.5 9.51709 16.5C7.70042 16.5 6.16309 15.8707 4.90509 14.612C3.64709 13.3533 3.01776 11.816 3.01709 10C3.01642 8.184 3.64576 6.64667 4.90509 5.388C6.16442 4.12933 7.70176 3.5 9.51709 3.5C11.3324 3.5 12.8701 4.12933 14.1301 5.388C15.3901 6.64667 16.0191 8.184 16.0171 10C16.0171 10.7333 15.9004 11.425 15.6671 12.075C15.4338 12.725 15.1171 13.3 14.7171 13.8L21.0171 20.1L19.6171 21.5ZM9.51709 14.5C10.7671 14.5 11.8298 14.0627 12.7051 13.188C13.5804 12.3133 14.0178 11.2507 14.0171 10C14.0164 8.74933 13.5791 7.687 12.7051 6.813C11.8311 5.939 10.7684 5.50133 9.51709 5.5C8.26576 5.49867 7.20342 5.93633 6.33009 6.813C5.45676 7.68967 5.01909 8.752 5.01709 10C5.01509 11.248 5.45276 12.3107 6.33009 13.188C7.20742 14.0653 8.26976 14.5027 9.51709 14.5Z" fill="black"/>
</svg>
