<svg width="42" height="42" viewBox="0 0 42 42" fill="none" xmlns="http://www.w3.org/2000/svg">
<path d="M29.0733 8.52937L24.9393 2.98409C24.4755 2.36629 23.8814 1.86633 23.2029 1.52249C22.5245 1.17865 21.7793 1 21.0241 1C20.2689 1 19.5237 1.17865 18.8453 1.52249C18.1668 1.86633 17.5732 2.36629 17.1093 2.98409L12.9754 8.52937C12.3946 9.31068 11.6119 9.9051 10.7182 10.2435L4.36019 12.6177C3.6343 12.8742 2.97574 13.3018 2.43611 13.8667C1.89648 14.4316 1.49036 15.1184 1.25001 15.8733C1.00965 16.6283 0.941319 17.4307 1.05058 18.2176C1.15983 19.0045 1.44381 19.7543 1.87979 20.4084L5.68314 26.2108C6.20604 27.0275 6.49291 27.9822 6.50994 28.9622L6.72472 35.9645C6.74063 36.7575 6.93355 37.536 7.28789 38.239C7.64223 38.942 8.14861 39.5504 8.76749 40.0168C9.38637 40.4832 10.1007 40.7951 10.8551 40.9277C11.6095 41.0603 12.3832 41.0101 13.1158 40.7812L19.6148 38.8272C20.5245 38.5513 21.4911 38.5513 22.4008 38.8272L28.8997 40.7812C29.6323 41.0101 30.4061 41.0603 31.1605 40.9277C31.9148 40.7951 32.6292 40.4832 33.248 40.0168C33.8669 39.5504 34.3733 38.942 34.7276 38.239C35.082 37.536 35.2749 36.7575 35.2908 35.9645L35.5056 28.9622C35.528 27.9831 35.8144 27.0299 36.3324 26.2108L40.1357 20.4084C40.5641 19.7547 40.8425 19.0081 40.95 18.2257C41.0575 17.4433 40.9912 16.646 40.7558 15.8943C40.5205 15.1426 40.1225 14.4565 39.5923 13.8886C39.0621 13.3208 38.4136 12.886 37.6965 12.6177L31.3304 10.2435C30.4367 9.9051 29.654 9.31068 29.0733 8.52937Z" fill="#FF8A00" stroke="#FF8A00" stroke-width="0.819783" stroke-linecap="round" stroke-linejoin="round"/>
</svg>
